<?xml version="1.0" standalone="no"?>
<!DOCTYPE svg PUBLIC "-//W3C//DTD SVG 20010904//EN"
 "http://www.w3.org/TR/2001/REC-SVG-20010904/DTD/svg10.dtd">
<svg version="1.0" xmlns="http://www.w3.org/2000/svg"
 width="500.000000pt" height="491.000000pt" viewBox="0 0 500.000000 491.000000"
 preserveAspectRatio="xMidYMid meet">

<g transform="translate(0.000000,491.000000) scale(0.100000,-0.100000)"
fill="#000000" stroke="none">
<path d="M0 4867 l0 -43 48 1 c72 3 72 3 72 28 -1 40 -23 57 -74 57 l-46 0 0
-43z"/>
<path d="M2160 4899 c0 -6 6 -9 14 -6 8 3 22 -3 32 -14 9 -10 19 -17 22 -15 2
3 13 -4 25 -14 11 -11 23 -17 27 -15 4 2 26 -16 50 -40 24 -24 48 -41 54 -38
6 3 8 2 3 -2 -4 -5 9 -26 30 -47 36 -37 58 -83 27 -57 -13 10 -13 8 -4 -16 6
-16 9 -34 6 -40 -4 -12 -63 -14 -81 -4 -5 4 -18 5 -27 4 -9 -2 -22 3 -28 10
-6 8 -18 11 -26 8 -8 -3 -20 -1 -27 5 -6 5 -20 8 -29 7 -9 -2 -22 3 -29 11 -6
8 -15 12 -19 9 -4 -2 -18 7 -30 20 -13 14 -30 25 -37 25 -8 0 -17 8 -20 18 -8
21 -43 59 -43 47 0 -5 -13 4 -30 20 -16 16 -30 26 -30 22 0 -4 -15 1 -32 11
-42 23 -51 22 -82 -5 -14 -13 -26 -20 -27 -15 -1 4 -7 -20 -15 -53 -9 -40 -13
-133 -14 -281 0 -193 2 -223 16 -228 9 -3 132 -6 275 -6 217 0 259 -2 259 -14
0 -8 -6 -16 -12 -19 -19 -6 -3 -19 27 -22 17 -2 29 3 35 16 6 10 17 19 25 19
7 0 16 6 18 13 3 6 6 3 6 -8 1 -11 8 -30 16 -42 8 -12 11 -24 7 -27 -13 -8
-22 4 -22 28 0 12 -3 16 -8 10 -4 -6 -13 -13 -20 -15 -11 -4 -9 -11 7 -29 11
-14 20 -20 21 -13 0 6 13 10 30 9 25 -2 30 2 30 19 0 13 6 22 15 22 11 0 15
-11 15 -36 0 -28 -3 -33 -11 -21 -9 13 -10 13 -6 0 2 -8 10 -15 18 -15 7 0 15
-9 17 -19 3 -15 0 -17 -14 -11 -72 29 -125 28 -172 -2 -21 -13 -26 -13 -43 3
-12 11 -19 30 -19 54 l0 38 -60 -1 -60 -1 0 -125 c0 -148 -14 -190 -24 -74 -3
43 -9 104 -13 136 l-6 57 -48 0 c-57 0 -56 2 -38 -130 5 -41 16 -129 25 -195
24 -196 20 -185 65 -185 38 0 39 -1 39 -35 0 -33 -4 -36 -67 -68 -38 -19 -89
-42 -115 -52 -43 -16 -48 -16 -63 -1 -9 9 -24 16 -34 16 -29 0 -70 45 -96 105
-14 30 -29 55 -34 55 -5 0 -14 13 -21 30 -7 16 -16 27 -21 24 -11 -6 -10 -250
1 -344 4 -36 8 -59 8 -51 1 8 5 12 8 8 4 -3 19 0 34 8 25 13 29 12 47 -8 49
-54 35 -82 -39 -79 -53 2 -54 2 -70 -34 l-17 -37 420 6 419 5 0 -163 0 -162
168 -9 167 -9 3 -77 3 -78 79 0 79 0 3 83 3 82 88 3 87 3 0 164 0 165 80 0 80
0 0 -340 0 -341 -82 3 -83 3 -3 83 -3 82 -79 0 -80 0 0 -75 0 -75 -165 0 -164
0 -3 73 -3 72 -82 3 -82 3 -3 -83 -3 -83 -90 0 -90 0 -3 167 -2 166 -83 7
c-45 4 -156 7 -247 8 -91 1 -202 3 -247 5 l-83 2 0 151 c0 97 -4 148 -10 144
-6 -4 -10 -62 -10 -141 l0 -134 -29 0 c-15 0 -49 3 -75 6 l-46 7 0 109 c0 78
-3 110 -12 112 -48 15 -51 17 -40 28 7 7 12 31 12 54 0 47 -11 54 -91 54 l-47
0 -8 57 c-7 45 -13 59 -28 61 -11 3 -80 1 -153 -3 l-133 -7 0 -78 0 -78 -82
-49 -83 -49 -3 -91 -3 -91 -74 -28 -75 -29 0 -481 0 -481 -82 -11 c-106 -15
-210 -15 -260 0 -47 14 -93 64 -107 115 -35 132 -40 542 -8 740 19 117 37 154
90 184 40 23 51 24 205 24 l162 0 0 303 c0 166 -1 302 -2 302 -2 0 -24 7 -50
14 l-46 15 -21 -44 c-40 -84 -117 -112 -166 -59 -61 66 0 169 97 166 27 -1 38
2 38 12 0 13 -12 18 -80 33 -51 12 -161 14 -198 4 -50 -14 -66 -36 -82 -116
-16 -79 -40 -113 -123 -170 -106 -73 -107 -74 -107 -397 0 -230 2 -268 15
-268 45 0 85 -183 85 -389 -1 -214 -32 -341 -81 -328 -19 5 -19 -15 -19 -1019
l0 -1024 2500 0 2500 0 0 1160 c0 807 -3 1160 -11 1160 -11 0 -79 29 -147 63
-91 44 -99 78 -96 387 1 199 4 232 22 286 40 115 77 166 196 271 49 44 49 79
0 121 -20 17 -40 32 -46 34 -16 6 -11 80 11 148 11 36 27 103 35 150 8 47 20
98 25 113 7 19 11 198 11 523 l0 494 -1420 0 c-1031 0 -1420 -3 -1420 -11z
m445 -859 c4 -6 10 -8 15 -5 5 3 9 -20 9 -50 0 -38 -4 -53 -11 -49 -8 5 -9 1
-5 -9 4 -10 10 -24 13 -32 5 -11 2 -13 -10 -9 -12 5 -16 20 -16 59 0 30 -4 65
-10 79 -9 25 2 37 15 16z m149 -181 c-3 -40 -14 -51 -14 -12 0 24 6 43 15 43
1 0 0 -14 -1 -31z m-1436 -615 c3 -38 1 -42 -23 -48 -46 -12 -65 1 -65 43 0
47 6 53 50 49 33 -3 35 -5 38 -44z m-682 12 c19 -13 22 -20 14 -35 -21 -41
-132 -32 -146 11 -15 47 72 63 132 24z m699 -218 c86 -12 112 -24 74 -32 -35
-9 -192 17 -197 32 -5 15 20 15 123 0z m2925 -373 c0 -201 -2 -225 -16 -225
-15 0 -16 20 -9 218 7 203 9 232 21 232 2 0 4 -101 4 -225z m-2780 111 l75
-12 7 -104 c5 -58 14 -121 21 -140 18 -45 21 -132 7 -195 -6 -27 -15 -81 -20
-119 -5 -37 -11 -70 -13 -72 -5 -6 -248 -43 -329 -50 l-76 -7 -6 44 c-13 111
-17 260 -10 456 l7 212 36 4 c53 5 215 -4 301 -17z m-545 -38 c10 -76 11 -635
2 -644 -23 -24 -29 30 -34 328 -3 173 -3 327 1 341 10 43 24 31 31 -25z m1055
-802 c-14 -7 -135 -41 -270 -76 -946 -240 -921 -234 -936 -218 -13 13 3 19
133 51 298 73 642 156 793 192 85 20 178 43 205 50 28 7 61 13 75 14 l25 0
-25 -13z m-953 -72 c-3 -3 -12 -4 -19 -1 -8 3 -5 6 6 6 11 1 17 -2 13 -5z
m342 -334 c88 -41 160 -113 204 -207 59 -127 47 -294 -29 -415 -91 -143 -280
-229 -441 -199 -142 26 -249 105 -310 228 -32 65 -37 86 -41 162 -5 98 12 176
54 247 13 22 21 44 17 47 -7 8 36 57 50 57 6 0 24 11 41 24 90 68 182 97 297
92 72 -3 98 -9 158 -36z m681 -625 l0 -75 -80 0 -80 0 0 75 0 75 80 0 80 0 0
-75z m1348 3 l-3 -73 -72 -3 -73 -3 0 76 0 75 75 0 76 0 -3 -72z"/>
<path d="M1150 1501 c0 -28 5 -51 10 -51 6 0 10 9 10 20 0 11 5 20 11 20 18 0
6 55 -13 58 -15 3 -18 -4 -18 -47z"/>
<path d="M1078 1517 c-7 -8 -20 -12 -30 -9 -10 2 -20 -2 -24 -11 -3 -9 -13
-13 -25 -10 -11 3 -21 -1 -25 -10 -3 -9 -11 -14 -17 -12 -18 7 -60 -32 -51
-47 6 -10 4 -10 -9 0 -14 12 -19 11 -33 -3 -16 -16 -15 -18 12 -41 36 -29 42
-29 65 -2 11 11 19 18 19 14 0 -3 17 4 38 18 21 13 52 27 70 31 17 3 32 11 32
15 0 5 7 7 16 3 13 -5 15 -1 10 15 -3 12 -9 31 -12 42 -6 23 -18 25 -36 7z"/>
<path d="M1198 1494 c-5 -41 7 -56 16 -20 3 13 9 31 12 40 4 10 1 16 -9 16
-10 0 -16 -12 -19 -36z"/>
<path d="M1242 1518 c-7 -7 -12 -25 -12 -40 0 -21 5 -28 20 -28 11 0 20 -5 20
-11 0 -6 7 -9 15 -6 8 4 17 2 21 -4 3 -6 12 -8 19 -5 7 2 16 -2 19 -10 3 -8
12 -14 19 -14 8 0 22 -9 32 -20 23 -26 45 -26 52 0 3 11 9 17 14 14 5 -3 9 2
9 10 0 8 -6 19 -13 23 -8 4 -17 17 -21 28 -8 20 -8 20 -23 -2 -16 -23 -43 -31
-43 -13 0 5 7 7 15 4 9 -4 15 0 15 9 0 15 -51 47 -76 47 -7 0 -14 8 -17 18 -3
14 -6 13 -14 -7 -10 -24 -10 -24 -15 -3 -7 25 -18 28 -36 10z"/>
<path d="M1091 1429 c-24 -5 -53 -15 -65 -23 -11 -9 -41 -29 -64 -46 -35 -24
-47 -28 -58 -19 -18 15 -37 0 -54 -42 -15 -36 -13 -39 39 -46 33 -5 41 -3 41
11 0 18 26 22 32 4 3 -8 12 -4 26 10 12 12 22 17 22 11 0 -21 72 -214 81 -217
12 -5 11 -102 -1 -102 -5 0 -10 15 -11 33 l0 32 -16 -23 c-15 -21 -17 -22 -34
-6 -18 16 -19 16 -19 -9 0 -15 -4 -27 -10 -27 -5 0 -10 8 -10 18 0 14 -2 14
-9 3 -7 -11 -25 -13 -80 -7 l-72 6 17 -32 c30 -58 116 -139 179 -169 52 -25
72 -29 145 -29 71 0 94 4 140 27 l55 26 -47 14 c-27 8 -48 20 -48 28 0 16 -42
31 -100 34 -24 1 -50 7 -57 13 -7 5 -20 8 -28 4 -11 -4 -15 1 -15 20 0 22 2
23 20 14 11 -6 20 -15 20 -21 0 -7 12 -8 31 -4 31 7 118 -5 219 -30 72 -18
107 -3 142 63 26 48 48 121 28 92 -5 -8 -10 -22 -10 -31 0 -11 -12 -15 -47
-16 -27 -1 -57 -4 -68 -6 -15 -3 -24 4 -36 32 l-17 36 5 -42 c4 -29 2 -43 -6
-43 -6 0 -11 12 -11 26 0 31 -23 28 -28 -4 -5 -35 -22 -25 -22 12 0 24 5 36
18 39 13 4 11 5 -5 6 -13 0 -23 3 -23 5 0 3 13 41 29 85 17 44 29 92 28 107
-2 21 3 29 21 33 41 10 19 25 -45 29 -35 2 -71 -1 -83 -8 -30 -16 -33 -10 -20
42 8 30 8 52 1 71 -12 30 -35 33 -120 16z m32 -202 c21 -66 21 -77 2 -77 -18
0 -15 -42 3 -48 9 -3 9 -9 1 -24 -10 -18 -13 -19 -20 -6 -12 22 -69 184 -69
197 0 6 15 11 33 11 31 0 34 -3 50 -53z m182 31 c-24 -82 -72 -197 -80 -195
-5 2 -14 16 -19 30 -8 22 -5 33 12 56 14 20 18 32 11 37 -10 6 -5 67 7 86 3 5
21 8 40 8 32 0 35 -2 29 -22z m-101 -20 c-3 -12 -7 -36 -8 -52 -1 -17 -5 -30
-9 -28 -4 1 -11 2 -16 2 -5 0 -11 19 -15 42 -7 44 2 58 37 58 14 0 17 -5 11
-22z m-14 -226 c0 -41 -51 -57 -70 -22 -8 15 -6 24 10 40 16 16 25 18 40 10
11 -6 20 -19 20 -28z m85 8 c9 -15 -14 -50 -33 -50 -39 0 -57 51 -25 69 18 9
46 0 58 -19z m-275 -90 c0 -5 -5 -10 -11 -10 -5 0 -7 5 -4 10 3 6 8 10 11 10
2 0 4 -4 4 -10z m445 -30 c3 -5 1 -10 -4 -10 -6 0 -11 5 -11 10 0 6 2 10 4 10
3 0 8 -4 11 -10z"/>
<path d="M1140 1005 c0 -9 5 -15 11 -13 6 2 11 8 11 13 0 5 -5 11 -11 13 -6 2
-11 -4 -11 -13z"/>
<path d="M1230 1005 c0 -8 5 -15 10 -15 6 0 10 7 10 15 0 8 -4 15 -10 15 -5 0
-10 -7 -10 -15z"/>
<path d="M1029 1052 c7 -12 17 -20 22 -16 6 3 9 7 7 8 -2 1 -12 8 -22 16 -18
14 -19 14 -7 -8z"/>
<path d="M740 4214 c0 -3 26 -16 58 -30 31 -14 66 -29 77 -34 57 -27 171 -67
178 -63 11 7 8 30 -6 45 -8 7 -19 23 -25 35 -22 40 -67 53 -179 53 -56 0 -103
-2 -103 -6z"/>
</g>
</svg>
